<?xml version="1.0" encoding="utf-8"?>
<!-- Generator: Adobe Illustrator 16.0.0, SVG Export Plug-In . SVG Version: 6.00 Build 0)  -->
<!DOCTYPE svg PUBLIC "-//W3C//DTD SVG 1.1//EN" "http://www.w3.org/Graphics/SVG/1.1/DTD/svg11.dtd">
<svg version="1.1" id="Layer_1" xmlns="http://www.w3.org/2000/svg" xmlns:xlink="http://www.w3.org/1999/xlink" x="0px" y="0px"
	 width="92.667px" height="51px" viewBox="0 0 92.667 51" enable-background="new 0 0 92.667 51" xml:space="preserve">
<g>
	<path fill="#EC1C24" d="M40.911,5.1c-0.003-0.086-0.005-0.171-0.013-0.256c-0.008-0.091-0.021-0.18-0.035-0.27
		c-0.009-0.066-0.018-0.132-0.03-0.197c-0.019-0.099-0.042-0.196-0.066-0.293c-0.014-0.056-0.027-0.111-0.042-0.167
		c-0.028-0.098-0.061-0.193-0.095-0.288c-0.02-0.055-0.039-0.11-0.061-0.165c-0.035-0.089-0.074-0.175-0.115-0.262
		c-0.028-0.06-0.056-0.12-0.086-0.178c-0.04-0.077-0.083-0.152-0.127-0.227c-0.038-0.065-0.076-0.129-0.117-0.192
		c-0.043-0.067-0.09-0.131-0.136-0.196c-0.047-0.065-0.094-0.13-0.145-0.193c-0.05-0.062-0.103-0.122-0.155-0.182
		c-0.052-0.058-0.104-0.117-0.158-0.174c-0.063-0.065-0.13-0.126-0.197-0.188c-0.049-0.045-0.097-0.091-0.148-0.135
		c-0.087-0.073-0.177-0.142-0.269-0.209c-0.031-0.022-0.058-0.047-0.089-0.069c-0.007-0.005-0.015-0.009-0.022-0.014
		c-0.108-0.075-0.221-0.144-0.335-0.21c-0.027-0.016-0.053-0.034-0.081-0.049c-0.117-0.065-0.238-0.123-0.361-0.178
		c-0.025-0.012-0.051-0.026-0.076-0.037c-0.112-0.048-0.229-0.089-0.345-0.129c-0.037-0.013-0.074-0.029-0.111-0.041
		c-0.093-0.029-0.189-0.052-0.285-0.076c-0.062-0.016-0.124-0.035-0.186-0.047c-0.074-0.016-0.15-0.025-0.226-0.037
		c-0.085-0.014-0.17-0.03-0.256-0.039c-0.066-0.007-0.134-0.008-0.201-0.013c-0.096-0.006-0.191-0.014-0.287-0.014
		c-0.015,0-0.028-0.002-0.043-0.002c-0.061,0-0.12,0.007-0.181,0.009c-0.085,0.003-0.171,0.006-0.256,0.013
		c-0.089,0.008-0.177,0.021-0.265,0.034c-0.068,0.01-0.136,0.019-0.203,0.031c-0.096,0.018-0.19,0.041-0.284,0.064
		c-0.06,0.015-0.119,0.029-0.178,0.045c-0.093,0.028-0.184,0.059-0.275,0.091c-0.06,0.021-0.12,0.042-0.18,0.066
		c-0.083,0.033-0.165,0.07-0.245,0.108c-0.066,0.031-0.131,0.061-0.196,0.094c-0.07,0.037-0.138,0.076-0.207,0.116
		c-0.072,0.042-0.144,0.083-0.213,0.129c-0.059,0.039-0.116,0.08-0.172,0.121c-0.073,0.052-0.146,0.104-0.216,0.161
		c-0.054,0.043-0.105,0.089-0.156,0.134c-0.067,0.059-0.135,0.118-0.199,0.181c-0.055,0.054-0.107,0.111-0.159,0.167
		c-0.055,0.059-0.11,0.117-0.163,0.179c-0.062,0.073-0.119,0.15-0.177,0.227c-0.031,0.042-0.065,0.08-0.096,0.123l-8.604,7.473
		l-8.604-7.473c-0.03-0.043-0.065-0.081-0.096-0.123c-0.058-0.077-0.115-0.154-0.176-0.227c-0.053-0.062-0.108-0.12-0.163-0.179
		c-0.053-0.056-0.104-0.113-0.16-0.167c-0.064-0.063-0.131-0.122-0.199-0.181c-0.052-0.045-0.103-0.09-0.156-0.134
		c-0.07-0.057-0.143-0.109-0.216-0.161c-0.057-0.041-0.114-0.082-0.172-0.121c-0.07-0.046-0.142-0.087-0.213-0.129
		c-0.068-0.04-0.137-0.079-0.207-0.116c-0.064-0.033-0.13-0.063-0.196-0.094c-0.081-0.038-0.162-0.075-0.246-0.108
		c-0.059-0.023-0.12-0.044-0.179-0.066c-0.091-0.032-0.182-0.063-0.275-0.091c-0.059-0.017-0.118-0.03-0.178-0.045
		c-0.094-0.023-0.188-0.046-0.284-0.064c-0.067-0.012-0.135-0.021-0.203-0.031c-0.088-0.012-0.175-0.025-0.265-0.034
		c-0.085-0.007-0.171-0.01-0.256-0.013c-0.061-0.002-0.12-0.009-0.181-0.009c-0.014,0-0.028,0.002-0.042,0.002
		c-0.096,0-0.191,0.008-0.287,0.014c-0.067,0.005-0.135,0.006-0.201,0.013c-0.086,0.009-0.171,0.025-0.256,0.039
		C9.902,0.453,9.826,0.462,9.751,0.478C9.689,0.49,9.628,0.509,9.566,0.525C9.47,0.549,9.374,0.571,9.281,0.601
		C9.244,0.613,9.208,0.629,9.17,0.642c-0.117,0.04-0.233,0.081-0.345,0.129C8.799,0.782,8.774,0.796,8.749,0.808
		C8.626,0.863,8.505,0.921,8.387,0.986C8.36,1.001,8.334,1.02,8.307,1.036C8.193,1.102,8.08,1.17,7.972,1.246
		C7.965,1.251,7.957,1.255,7.95,1.26C7.918,1.282,7.891,1.307,7.86,1.329C7.769,1.396,7.678,1.465,7.592,1.538
		C7.54,1.582,7.493,1.628,7.443,1.673C7.377,1.734,7.31,1.796,7.246,1.861C7.191,1.917,7.14,1.977,7.088,2.035
		c-0.053,0.06-0.105,0.12-0.155,0.182C6.882,2.279,6.836,2.344,6.789,2.409C6.742,2.474,6.695,2.539,6.652,2.605
		C6.611,2.668,6.573,2.732,6.535,2.797c-0.044,0.075-0.087,0.15-0.127,0.227C6.378,3.083,6.35,3.143,6.322,3.203
		c-0.041,0.086-0.08,0.173-0.115,0.262c-0.021,0.055-0.041,0.11-0.06,0.165C6.113,3.724,6.08,3.82,6.052,3.917
		C6.036,3.973,6.023,4.028,6.009,4.084C5.985,4.181,5.961,4.278,5.943,4.377c-0.012,0.065-0.021,0.131-0.03,0.197
		C5.9,4.663,5.887,4.752,5.878,4.843C5.871,4.928,5.869,5.014,5.865,5.1c-0.002,0.06-0.009,0.119-0.009,0.179v21.938
		c0,2.71,2.197,4.908,4.907,4.908c2.71,0,4.907-2.197,4.907-4.908v-11.37l3.655,3.174c0.937,1.338,2.421,2.061,3.938,2.087
		c0.042,0.001,0.083,0.003,0.125,0.003c0.042,0,0.083-0.002,0.125-0.003c1.517-0.027,3.001-0.75,3.938-2.087l3.655-3.174v11.37
		c0,2.71,2.197,4.908,4.907,4.908c2.71,0,4.908-2.197,4.908-4.908V5.279C40.92,5.218,40.913,5.159,40.911,5.1z"/>
	<g>
		<path fill="#F16522" d="M51.404,11.351c2.71,0,4.908,2.197,4.908,4.907v11.1c0,2.71-2.197,4.907-4.908,4.907l0,0
			c-2.71,0-4.907-2.197-4.907-4.907v-11.1C46.498,13.548,48.694,11.351,51.404,11.351L51.404,11.351z"/>
		<path fill="#F16522" d="M51.404,0.372c2.71,0,4.908,2.197,4.908,4.907v0.262c0,2.71-2.197,4.908-4.908,4.908l0,0
			c-2.71,0-4.907-2.197-4.907-4.908V5.279C46.498,2.569,48.694,0.372,51.404,0.372L51.404,0.372z"/>
	</g>
	<path fill="#00ADEE" d="M85.307,23.667l-7.968-6.983l7.765-5.816c2.169-1.625,2.61-4.7,0.986-6.869
		c-1.625-2.169-4.701-2.61-6.87-0.986l-7.243,5.425V5.418c0-2.71-2.197-4.907-4.908-4.907c-2.71,0-4.907,2.197-4.907,4.907v21.938
		c0,2.71,2.197,4.907,4.907,4.907c2.71,0,4.908-2.197,4.908-4.907v-2.323l6.862,6.014c2.039,1.786,5.139,1.582,6.925-0.457
		C87.55,28.553,87.345,25.452,85.307,23.667z"/>
</g>
<g>
	<path fill="#231F20" d="M19.236,50.707c-0.113,0-0.182-0.015-0.208-0.046c-0.026-0.03-0.039-0.097-0.039-0.202v-6.532l-2.538,6.493
		c-0.043,0.096-0.083,0.156-0.117,0.183c-0.035,0.026-0.1,0.039-0.195,0.039h-1.132c-0.096,0-0.163-0.013-0.202-0.039
		c-0.039-0.026-0.076-0.087-0.111-0.183l-2.537-6.493v6.532c0,0.104-0.013,0.171-0.039,0.202c-0.026,0.031-0.096,0.046-0.208,0.046
		h-1.275c-0.113,0-0.182-0.015-0.208-0.046c-0.026-0.03-0.039-0.097-0.039-0.202v-9.382c0-0.182,0.02-0.293,0.059-0.332
		s0.146-0.059,0.319-0.059h1.458c0.078,0,0.139,0.013,0.182,0.039s0.083,0.083,0.117,0.169l3.045,7.56l3.058-7.56
		c0.052-0.139,0.16-0.208,0.325-0.208h1.418c0.182,0,0.292,0.02,0.332,0.059s0.059,0.15,0.059,0.332v9.382
		c0,0.104-0.015,0.171-0.045,0.202c-0.03,0.031-0.098,0.046-0.202,0.046H19.236z"/>
	<path fill="#231F20" d="M27.812,47.31c-0.009,0.104-0.033,0.185-0.072,0.241c-0.039,0.057-0.11,0.084-0.215,0.084h-4.073
		c0.061,0.582,0.245,1.011,0.553,1.289c0.308,0.278,0.674,0.425,1.1,0.442c0.399,0.018,0.748-0.021,1.047-0.117
		c0.299-0.095,0.587-0.23,0.865-0.403c0.122-0.078,0.204-0.1,0.248-0.065c0.043,0.035,0.065,0.125,0.065,0.273v0.976
		c0,0.095-0.011,0.16-0.033,0.195c-0.021,0.034-0.071,0.082-0.149,0.143c-0.252,0.173-0.571,0.304-0.957,0.39
		c-0.386,0.087-0.766,0.13-1.139,0.13c-1.041,0-1.863-0.334-2.466-1.002c-0.603-0.668-0.904-1.618-0.904-2.85
		c0-0.459,0.061-0.919,0.182-1.379c0.121-0.46,0.316-0.874,0.585-1.243c0.269-0.368,0.599-0.667,0.989-0.897
		c0.391-0.23,0.854-0.345,1.393-0.345c0.546,0,1.008,0.1,1.386,0.299c0.377,0.2,0.685,0.469,0.924,0.807s0.41,0.731,0.514,1.177
		c0.104,0.447,0.156,0.922,0.156,1.425V47.31z M24.871,44.682c-0.182,0-0.352,0.043-0.507,0.13c-0.156,0.087-0.293,0.2-0.41,0.338
		c-0.117,0.139-0.219,0.299-0.306,0.481c-0.087,0.182-0.143,0.373-0.169,0.573h2.642c0-0.173-0.028-0.352-0.084-0.534
		c-0.057-0.182-0.135-0.345-0.234-0.488s-0.228-0.262-0.384-0.358C25.261,44.729,25.079,44.682,24.871,44.682z"/>
	<path fill="#231F20" d="M34.123,47.31c-0.009,0.104-0.033,0.185-0.072,0.241c-0.039,0.057-0.11,0.084-0.215,0.084h-4.073
		c0.061,0.582,0.245,1.011,0.553,1.289c0.308,0.278,0.674,0.425,1.1,0.442c0.399,0.018,0.748-0.021,1.047-0.117
		c0.299-0.095,0.587-0.23,0.865-0.403c0.122-0.078,0.204-0.1,0.248-0.065c0.043,0.035,0.065,0.125,0.065,0.273v0.976
		c0,0.095-0.011,0.16-0.033,0.195c-0.021,0.034-0.071,0.082-0.149,0.143c-0.252,0.173-0.571,0.304-0.957,0.39
		c-0.386,0.087-0.766,0.13-1.139,0.13c-1.041,0-1.863-0.334-2.466-1.002c-0.603-0.668-0.904-1.618-0.904-2.85
		c0-0.459,0.061-0.919,0.182-1.379c0.121-0.46,0.316-0.874,0.585-1.243c0.269-0.368,0.599-0.667,0.989-0.897
		c0.391-0.23,0.854-0.345,1.393-0.345c0.546,0,1.008,0.1,1.386,0.299c0.377,0.2,0.685,0.469,0.924,0.807s0.41,0.731,0.514,1.177
		c0.104,0.447,0.156,0.922,0.156,1.425V47.31z M31.182,44.682c-0.182,0-0.352,0.043-0.507,0.13c-0.156,0.087-0.293,0.2-0.41,0.338
		c-0.117,0.139-0.219,0.299-0.306,0.481c-0.087,0.182-0.143,0.373-0.169,0.573h2.642c0-0.173-0.028-0.352-0.084-0.534
		c-0.057-0.182-0.135-0.345-0.234-0.488s-0.228-0.262-0.384-0.358C31.572,44.729,31.39,44.682,31.182,44.682z"/>
	<path fill="#231F20" d="M38.338,50.615c-0.173,0.078-0.382,0.146-0.625,0.202c-0.243,0.057-0.521,0.08-0.833,0.072
		c-0.321-0.009-0.611-0.089-0.872-0.241c-0.26-0.152-0.451-0.336-0.573-0.553c-0.122-0.251-0.195-0.536-0.221-0.852
		c-0.026-0.317-0.039-0.727-0.039-1.23v-3.071h-0.924c-0.165,0-0.247-0.087-0.247-0.26v-1.08c0-0.173,0.082-0.26,0.247-0.26h0.924
		V41.61c0-0.173,0.087-0.26,0.26-0.26h1.197c0.165,0,0.247,0.087,0.247,0.26v1.731h1.106c0.104,0,0.171,0.02,0.202,0.059
		c0.03,0.039,0.045,0.106,0.045,0.202v1.08c0,0.096-0.015,0.163-0.045,0.202c-0.031,0.039-0.098,0.059-0.202,0.059h-1.106v2.915
		c0,0.313,0,0.566,0,0.761c0,0.195,0.009,0.324,0.026,0.384c0.034,0.165,0.108,0.269,0.221,0.312
		c0.112,0.043,0.234,0.057,0.364,0.039c0.13-0.017,0.256-0.047,0.377-0.091c0.121-0.043,0.217-0.083,0.286-0.117
		s0.122-0.037,0.156-0.007c0.035,0.031,0.056,0.094,0.065,0.189l0.117,0.976c0.008,0.078,0.004,0.141-0.013,0.188
		C38.464,50.539,38.417,50.581,38.338,50.615z"/>
	<path fill="#231F20" d="M42.216,42.3c-0.286,0-0.525-0.1-0.716-0.299s-0.286-0.442-0.286-0.729c0-0.286,0.093-0.531,0.28-0.735
		s0.427-0.306,0.722-0.306s0.538,0.103,0.729,0.306s0.287,0.449,0.287,0.735c0,0.287-0.096,0.529-0.287,0.729
		S42.511,42.3,42.216,42.3z M41.553,50.707c-0.078,0-0.132-0.018-0.163-0.052c-0.031-0.035-0.046-0.104-0.046-0.208v-6.78
		c0-0.104,0.013-0.173,0.039-0.208c0.026-0.035,0.083-0.052,0.169-0.052h1.288c0.086,0,0.145,0.018,0.176,0.052
		c0.03,0.035,0.045,0.104,0.045,0.208v6.78c0,0.104-0.015,0.173-0.045,0.208c-0.031,0.035-0.089,0.052-0.176,0.052H41.553z"/>
	<path fill="#231F20" d="M45.665,50.446c0,0.104-0.018,0.173-0.052,0.208s-0.1,0.052-0.195,0.052h-1.21
		c-0.104,0-0.174-0.022-0.208-0.065c-0.035-0.043-0.052-0.113-0.052-0.208v-5.088c0-0.33,0.002-0.664,0.006-1.002
		s-0.006-0.594-0.032-0.768c-0.018-0.096-0.009-0.156,0.026-0.183c0.035-0.026,0.113-0.039,0.234-0.039h1.236
		c0.095,0,0.156,0.009,0.182,0.026c0.026,0.018,0.039,0.065,0.039,0.143v0.495c0.182-0.191,0.418-0.367,0.709-0.527
		c0.291-0.16,0.587-0.241,0.891-0.241c0.868,0,1.503,0.248,1.907,0.742c0.403,0.495,0.605,1.215,0.605,2.16v4.294
		c0,0.104-0.018,0.173-0.052,0.208s-0.1,0.052-0.195,0.052h-1.21c-0.173,0-0.26-0.091-0.26-0.273v-4.021
		c0-1.049-0.317-1.574-0.95-1.574c-0.442,0-0.79,0.143-1.041,0.429c-0.252,0.286-0.377,0.677-0.377,1.171V50.446z"/>
	<path fill="#231F20" d="M58.26,50.707c-0.122,0-0.204-0.011-0.247-0.033c-0.043-0.021-0.091-0.071-0.143-0.149l-1.796-2.837
		l-0.521,0.612v2.121c0,0.104-0.02,0.174-0.059,0.208s-0.106,0.052-0.202,0.052h-1.197c-0.096,0-0.161-0.017-0.195-0.052
		s-0.052-0.104-0.052-0.208V40.27c0-0.173,0.082-0.26,0.247-0.26h1.197c0.173,0,0.26,0.087,0.26,0.26v5.674l2.03-2.459
		c0.043-0.052,0.083-0.086,0.117-0.104s0.091-0.026,0.169-0.026h1.275c0.147,0,0.232,0.031,0.254,0.091
		c0.021,0.061-0.033,0.169-0.163,0.325l-2.147,2.694l2.498,3.904c0.078,0.113,0.111,0.197,0.098,0.254
		c-0.013,0.056-0.093,0.084-0.241,0.084H58.26z"/>
	<path fill="#231F20" d="M65.521,49.691c-0.321,0.408-0.705,0.713-1.152,0.917c-0.447,0.204-0.943,0.306-1.49,0.306
		c-0.573,0-1.074-0.104-1.503-0.312c-0.43-0.208-0.79-0.488-1.08-0.839c-0.291-0.352-0.51-0.761-0.657-1.23
		c-0.147-0.468-0.221-0.963-0.221-1.483s0.072-1.015,0.215-1.483s0.36-0.878,0.65-1.229c0.291-0.352,0.653-0.629,1.087-0.833
		c0.434-0.204,0.937-0.306,1.509-0.306s1.076,0.104,1.509,0.312c0.434,0.208,0.796,0.488,1.087,0.839
		c0.291,0.352,0.509,0.759,0.657,1.223c0.147,0.464,0.221,0.957,0.221,1.477c0,0.512-0.071,0.996-0.214,1.451
		C65.997,48.956,65.79,49.353,65.521,49.691z M62.88,44.721c-0.286,0-0.538,0.067-0.755,0.202s-0.397,0.31-0.54,0.527
		s-0.251,0.464-0.325,0.742c-0.074,0.278-0.111,0.564-0.111,0.859s0.037,0.582,0.111,0.859c0.074,0.278,0.182,0.527,0.325,0.748
		s0.323,0.399,0.54,0.534c0.217,0.135,0.469,0.202,0.755,0.202c0.295,0,0.551-0.067,0.768-0.202c0.217-0.134,0.397-0.313,0.54-0.534
		s0.25-0.47,0.319-0.748c0.069-0.277,0.104-0.564,0.104-0.859c0-0.286-0.035-0.568-0.104-0.846s-0.176-0.527-0.319-0.749
		c-0.143-0.221-0.323-0.399-0.54-0.533S63.175,44.721,62.88,44.721z"/>
	<path fill="#231F20" d="M70.479,44.981c-0.165-0.069-0.317-0.111-0.456-0.124c-0.139-0.013-0.26-0.002-0.364,0.032
		c-0.208,0.07-0.375,0.182-0.501,0.338c-0.126,0.156-0.221,0.338-0.287,0.546c-0.065,0.208-0.106,0.425-0.124,0.651
		s-0.026,0.442-0.026,0.65v3.357c0,0.104-0.015,0.176-0.045,0.215c-0.031,0.039-0.094,0.059-0.189,0.059h-1.249
		c-0.096,0-0.156-0.018-0.182-0.052c-0.026-0.035-0.039-0.113-0.039-0.234v-5.153c0-0.277-0.004-0.568-0.013-0.872
		c-0.009-0.303-0.013-0.555-0.013-0.754c0-0.113,0.018-0.187,0.052-0.221s0.1-0.052,0.195-0.052h1.249
		c0.13,0,0.195,0.07,0.195,0.208v0.496c0.113-0.166,0.256-0.326,0.429-0.483c0.174-0.156,0.356-0.251,0.547-0.287
		c0.182-0.035,0.362-0.045,0.54-0.033c0.178,0.013,0.314,0.054,0.41,0.124c0.043,0.035,0.072,0.067,0.084,0.098
		c0.013,0.031,0.02,0.081,0.02,0.15v1.132c0,0.096-0.018,0.165-0.052,0.208C70.626,45.024,70.565,45.024,70.479,44.981z"/>
	<path fill="#231F20" d="M76.608,47.31c-0.009,0.104-0.033,0.185-0.072,0.241c-0.039,0.057-0.11,0.084-0.215,0.084h-4.073
		c0.061,0.582,0.245,1.011,0.553,1.289c0.308,0.278,0.674,0.425,1.1,0.442c0.399,0.018,0.748-0.021,1.047-0.117
		c0.299-0.095,0.587-0.23,0.865-0.403c0.122-0.078,0.204-0.1,0.248-0.065c0.043,0.035,0.065,0.125,0.065,0.273v0.976
		c0,0.095-0.011,0.16-0.033,0.195c-0.021,0.034-0.071,0.082-0.149,0.143c-0.252,0.173-0.571,0.304-0.957,0.39
		c-0.386,0.087-0.766,0.13-1.139,0.13c-1.041,0-1.863-0.334-2.466-1.002c-0.603-0.668-0.904-1.618-0.904-2.85
		c0-0.459,0.061-0.919,0.182-1.379c0.121-0.46,0.316-0.874,0.585-1.243c0.269-0.368,0.599-0.667,0.989-0.897
		c0.391-0.23,0.854-0.345,1.393-0.345c0.546,0,1.008,0.1,1.386,0.299c0.377,0.2,0.685,0.469,0.924,0.807s0.41,0.731,0.514,1.177
		c0.104,0.447,0.156,0.922,0.156,1.425V47.31z M73.667,44.682c-0.182,0-0.352,0.043-0.507,0.13c-0.156,0.087-0.293,0.2-0.41,0.338
		c-0.117,0.139-0.219,0.299-0.306,0.481c-0.087,0.182-0.143,0.373-0.169,0.573h2.642c0-0.173-0.028-0.352-0.084-0.534
		c-0.057-0.182-0.135-0.345-0.234-0.488s-0.228-0.262-0.384-0.358C74.057,44.729,73.875,44.682,73.667,44.682z"/>
	<path fill="#231F20" d="M81.123,50.732c-0.078,0-0.128-0.009-0.149-0.026c-0.022-0.018-0.033-0.07-0.033-0.156v-0.56
		c-0.147,0.234-0.388,0.434-0.722,0.599c-0.334,0.165-0.666,0.247-0.996,0.247c-0.356,0-0.698-0.05-1.028-0.149
		c-0.33-0.1-0.601-0.256-0.813-0.469c-0.212-0.212-0.379-0.468-0.501-0.768s-0.182-0.64-0.182-1.021
		c0-0.451,0.108-0.859,0.325-1.223s0.505-0.648,0.866-0.853c0.36-0.204,0.787-0.351,1.282-0.442c0.494-0.091,1.041-0.119,1.64-0.084
		c-0.052-0.685-0.347-1.063-0.885-1.132c-0.173-0.017-0.349-0.013-0.527,0.013s-0.352,0.067-0.521,0.124
		c-0.169,0.057-0.332,0.122-0.488,0.195c-0.156,0.074-0.295,0.15-0.417,0.228c-0.182,0.122-0.313,0.182-0.391,0.182
		s-0.117-0.086-0.117-0.26v-1.08c0-0.113,0.011-0.193,0.033-0.241c0.021-0.048,0.084-0.098,0.189-0.15
		c0.26-0.13,0.566-0.251,0.917-0.364c0.352-0.113,0.766-0.169,1.243-0.169c0.885,0,1.546,0.226,1.985,0.677
		c0.438,0.451,0.657,1.15,0.657,2.095v2.967c0,0.113,0,0.236,0,0.371c0,0.134,0.002,0.271,0.007,0.41
		c0.004,0.139,0.008,0.271,0.013,0.397s0.011,0.236,0.02,0.332c0.018,0.174,0.009,0.269-0.026,0.287
		c-0.035,0.017-0.096,0.026-0.182,0.026H81.123z M80.941,47.141c-0.495,0.009-0.902,0.045-1.223,0.11
		c-0.321,0.065-0.579,0.154-0.774,0.267c-0.195,0.113-0.328,0.248-0.397,0.404c-0.069,0.156-0.104,0.33-0.104,0.521
		c0,0.277,0.083,0.492,0.248,0.644c0.165,0.152,0.395,0.228,0.689,0.228c0.468,0,0.844-0.171,1.125-0.514
		S80.932,47.904,80.941,47.141z"/>
</g>
</svg>
